<svg width="46" height="46" viewBox="0 0 46 46" fill="none" xmlns="http://www.w3.org/2000/svg">
<circle cx="23" cy="23" r="23" fill="#FD853A"/>
<path d="M37.0711 31.0711C35.6725 32.4696 33.8907 33.422 31.9509 33.8079C30.0111 34.1937 28.0004 33.9957 26.1732 33.2388C24.3459 32.4819 22.7841 31.2002 21.6853 29.5557C20.5865 27.9112 20 25.9778 20 24C20 22.0222 20.5865 20.0888 21.6853 18.4443C22.7841 16.7998 24.3459 15.5181 26.1732 14.7612C28.0004 14.0043 30.0111 13.8063 31.9509 14.1921C33.8907 14.578 35.6725 15.5304 37.0711 16.9289L33.7699 20.2301C33.0243 19.4845 32.0743 18.9767 31.0401 18.771C30.0059 18.5653 28.9339 18.6708 27.9597 19.0744C26.9855 19.4779 26.1529 20.1612 25.567 21.038C24.9812 21.9147 24.6685 22.9455 24.6685 24C24.6685 25.0545 24.9812 26.0853 25.567 26.962C26.1529 27.8388 26.9855 28.5221 27.9597 28.9256C28.9339 29.3292 30.0059 29.4347 31.0401 29.229C32.0743 29.0233 33.0243 28.5155 33.7699 27.7699L37.0711 31.0711Z" fill="white"/>
<path d="M18.4999 34L6.8086 13.75L30.1913 13.75L25 21.5L22 27.75L18.4999 34Z" fill="white"/>
<path d="M18.5 24.5L13 14L24 14L18.5 24.5Z" fill="#FD853A"/>
<rect x="6" y="12" width="26" height="2" fill="#FD853A"/>
</svg>
