<svg width="86" height="20" viewBox="0 0 86 20" fill="none" xmlns="http://www.w3.org/2000/svg">
<g clip-path="url(#clip0_387_526)">
<path d="M5.5 19L1.74988e-06 0.219491L4.1056 0.219493L7.30429 10.2195L8.5 10.2195L11.6325 0.219488L16 0.219492L10 19.0002L5.5 19Z" fill="white"/>
<path d="M19 9.70423C19.0048 3.55936 22.8439 -0.00402074 27.7428 3.4047e-06C30.061 3.4047e-06 31.962 1.12435 33.198 2.36177L30.917 4.95534C30.0452 4.13521 29.0616 3.62375 27.74 3.62254C25.144 3.62254 23.2466 5.85674 23.2442 9.56942C23.241 13.3795 25.1348 15.592 27.8938 15.596C29.2126 15.596 30.3016 14.9408 31.1896 13.9622L33.4659 16.5014C31.9731 18.2897 29.9259 19.2217 27.4642 19.2197C22.9184 19.2141 18.9952 15.9582 19 9.70423Z" fill="white"/>
<path d="M50.9063 18.8839L46.7763 11.4642C48.7292 10.5704 50.0365 8.84406 50.0385 6.12093C50.042 1.71127 46.8551 0.343864 42.9811 0.340644L36.4797 0.335815L36.4658 18.8714L40.6129 18.8746L40.6177 12.207H42.7917L46.2762 18.8771L50.9063 18.8839ZM40.624 3.66861H42.6415C44.8163 3.66861 45.9825 4.28632 45.9809 6.1161C45.9809 7.93058 44.8123 8.87787 42.6375 8.87626H40.62L40.624 3.66861Z" fill="white"/>
<path d="M53.921 0.337219L66.0433 0.346475L66.0405 3.86358L58.0578 3.85754L58.055 7.57505L64.8374 7.58028L64.8346 11.0974L58.0523 11.0921L58.0491 15.3577L66.3128 15.3642L66.31 18.8825L53.9064 18.8728L53.921 0.337219Z" fill="white"/>
<path d="M81.2761 18.8781L85.6645 18.8817L79.9838 0.341665L75.0228 0.338043L69.3127 18.8692L73.549 18.8724L74.6685 14.4648L80.1721 14.4688L81.2761 18.8781ZM75.4983 11.1968L75.9342 9.48975C76.3987 7.63865 76.9087 5.46883 77.3581 3.51309H77.4702C77.9093 5.46963 78.4637 7.64146 78.9257 9.49217L79.3537 11.2L75.4983 11.1968Z" fill="white"/>
</g>
<defs>
<clipPath id="clip0_387_526">
<rect width="85.6646" height="19.2197" fill="white"/>
</clipPath>
</defs>
</svg>
