<svg aria-hidden="true" style="position: absolute; width: 0; height: 0; overflow: hidden;" version="1.1" xmlns="http://www.w3.org/2000/svg" xmlns:xlink="http://www.w3.org/1999/xlink">
<defs>
<symbol id="icon-quote-up" viewBox="0 0 32 32">
<path d="M10.787 15.507h-6.253c0.107-6.227 1.333-7.253 5.16-9.52 0.44-0.267 0.587-0.827 0.32-1.28-0.253-0.44-0.827-0.587-1.267-0.32-4.507 2.667-6.080 4.293-6.080 12.040v7.187c0 2.28 1.853 4.12 4.12 4.12h4c2.347 0 4.12-1.773 4.12-4.12v-4c0-2.333-1.773-4.107-4.12-4.107z"></path>
<path d="M25.213 15.507h-6.253c0.107-6.227 1.333-7.253 5.16-9.52 0.44-0.267 0.587-0.827 0.32-1.28-0.267-0.44-0.827-0.587-1.28-0.32-4.507 2.667-6.080 4.293-6.080 12.053v7.187c0 2.28 1.853 4.12 4.12 4.12h4c2.347 0 4.12-1.773 4.12-4.12v-4c0.013-2.347-1.76-4.12-4.107-4.12z"></path>
</symbol>
<symbol id="icon-Vector-2" viewBox="0 0 28 32">
<path stroke-linejoin="round" stroke-linecap="round" stroke-miterlimit="4" stroke-width="1.8824" d="M26.846 13.64c-0.633 2.884-4.784 8.018-3.8 17.303M20.376 8.692c-5.045 3.090-15.708 10.959-17.997 17.711M18.97 1.33c-2.563-0.563-9.716-0.723-17.819 3.14"></path>
</symbol>
<symbol id="icon-Vector-1" viewBox="0 0 32 32">
<path stroke-linejoin="round" stroke-linecap="round" stroke-miterlimit="4" stroke-width="3.8788" d="M2.662 19.394c0-2.909 2.909-8.727 0-17.455M9.935 22.788c4.202-4.040 12.8-13.867 13.576-20.849M12.844 29.576c2.586 0 9.503-1.358 16.485-6.788"></path>
</symbol>
<symbol id="icon-star" viewBox="0 0 32 32">
<path d="M23.891 19.093c-0.345 0.335-0.504 0.819-0.425 1.293l1.185 6.56c0.1 0.556-0.135 1.119-0.6 1.44-0.456 0.333-1.063 0.373-1.56 0.107l-5.905-3.080c-0.205-0.109-0.433-0.168-0.667-0.175h-0.361c-0.125 0.019-0.248 0.059-0.36 0.12l-5.907 3.095c-0.292 0.147-0.623 0.199-0.947 0.147-0.789-0.149-1.316-0.901-1.187-1.695l1.187-6.56c0.079-0.479-0.080-0.965-0.425-1.305l-4.815-4.667c-0.403-0.391-0.543-0.977-0.359-1.507 0.179-0.528 0.635-0.913 1.185-1l6.627-0.961c0.504-0.052 0.947-0.359 1.173-0.812l2.92-5.987c0.069-0.133 0.159-0.256 0.267-0.36l0.12-0.093c0.063-0.069 0.135-0.127 0.215-0.173l0.145-0.053 0.227-0.093h0.561c0.501 0.052 0.943 0.352 1.173 0.8l2.959 5.96c0.213 0.436 0.628 0.739 1.107 0.812l6.627 0.961c0.56 0.080 1.028 0.467 1.213 1 0.175 0.535 0.024 1.121-0.387 1.507l-4.987 4.72z"></path>
</symbol>
<symbol id="icon-light" viewBox="0 0 32 32">
<path d="M5.333 14.667c-0.736 0-1.333 0.597-1.333 1.333s0.597 1.333 1.333 1.333h18.781l-6.39 6.39c-0.521 0.521-0.521 1.365 0 1.886s1.365 0.521 1.886 0l7.724-7.724c1.041-1.041 1.041-2.73 0-3.771l-7.724-7.724c-0.521-0.521-1.365-0.521-1.886 0s-0.521 1.365 0 1.886l6.39 6.39h-18.781z"></path>
</symbol>
<symbol id="icon-Vector-star" viewBox="0 0 26 32">
<path d="M20.507 7.047l-2.634 0.87-2.481-2.744c-1.314-1.508-3.049-3.14-3.845-3.695-2.104-1.466-3.309 0.991-2.548 4.989l0.641 3.322-3.997 0.765c-2.51 0.449-4.218 1.203-4.484 1.948-0.504 1.086-0.071 1.557 4.426 4.437l4.895 3.158-0.189 2.574c-0.763 9.7 2.78 12.253 5.76 4.099l1.267-3.514 1.716 0.689c5.052 2.084 5.78 2.252 6.335 1.456 0.317-0.455-0.499-2.8-1.814-5.154-2.74-5.038-2.82-5.771-0.837-8.616 2.975-4.268 2.183-5.92-2.211-4.585zM13.66 8.871c-0.198 0.285-0.51 0.49-0.624 0.411-0.171-0.119-0.257-0.602-0.229-1.005 0.067-0.46 0.34-0.609 0.624-0.411 0.341 0.238 0.467 0.664 0.229 1.005zM16.826 13.783c0.12 0.676-0.428 2.069-1.182 3.15l-1.428 2.049-0.55-3.089c-0.464-2.606-0.3-3.084 0.841-3.388 1.607-0.487 2.044-0.266 2.319 1.278zM9.832 15.334c-0.164 0.478-0.874 0.405-1.784-0.229-1.365-0.951-1.399-1.144-0.258-1.448 1.47-0.413 2.397 0.318 2.042 1.677z"></path>
</symbol>
<symbol id="icon-sms" viewBox="0 0 31 32">
<path d="M21.98 4.604h-12.929c-3.879 0-6.465 1.939-6.465 6.465v9.051c0 4.525 2.586 6.465 6.465 6.465h12.929c3.879 0 6.465-1.939 6.465-6.465v-9.051c0-4.525-2.586-6.465-6.465-6.465zM22.587 12.478l-4.047 3.232c-0.853 0.685-1.939 1.021-3.025 1.021s-2.185-0.336-3.025-1.021l-4.047-3.232c-0.414-0.336-0.478-0.957-0.155-1.371 0.336-0.414 0.944-0.491 1.358-0.155l4.047 3.232c0.983 0.789 2.65 0.789 3.633 0l4.047-3.232c0.414-0.336 1.034-0.271 1.358 0.155 0.336 0.414 0.271 1.034-0.142 1.371z"></path>
</symbol>
<symbol id="icon-quote-down" viewBox="0 0 32 32">
<path d="M21.049 16.386h6.205c-0.106 6.178-1.323 7.197-5.12 9.446-0.437 0.265-0.582 0.82-0.318 1.27 0.265 0.437 0.82 0.582 1.27 0.318 4.472-2.646 6.033-4.26 6.033-11.96v-7.131c0-2.262-1.839-4.088-4.088-4.088h-3.969c-2.328 0-4.088 1.76-4.088 4.088v3.969c-0.013 2.328 1.746 4.088 4.075 4.088z"></path>
<path d="M6.734 16.386h6.205c-0.106 6.178-1.323 7.197-5.12 9.446-0.437 0.265-0.582 0.82-0.318 1.27 0.265 0.437 0.82 0.582 1.27 0.318 4.472-2.646 6.033-4.26 6.033-11.96v-7.131c0-2.262-1.839-4.088-4.088-4.088h-3.969c-2.342 0-4.101 1.76-4.101 4.088v3.969c0 2.328 1.76 4.088 4.088 4.088z"></path>
</symbol>
<symbol id="icon-Star-3" viewBox="0 0 32 32">
<path d="M15.612 0.276l4.784 11.047 11.422 3.803-11.047 4.784-3.803 11.422-4.784-11.047-11.422-3.803 11.047-4.784 3.803-11.422z"></path>
</symbol>
</defs>
</svg>